<svg width="96" height="96" viewBox="0 0 96 96" fill="none" xmlns="http://www.w3.org/2000/svg">
<path opacity="0.1" d="M59.2639 91.3548C75.0149 91.3548 87.7836 90.603 87.7836 89.6756C87.7836 88.7482 75.0149 87.9963 59.2639 87.9963C43.5129 87.9963 30.7441 88.7482 30.7441 89.6756C30.7441 90.603 43.5129 91.3548 59.2639 91.3548Z" fill="black"/>
<path d="M44.8815 26.2213L43.0913 26.6543L44.5558 32.709L46.346 32.276L44.8815 26.2213Z" fill="#7041C2"/>
<path d="M32.6506 38.941L29.7753 41.8109L16.48 28.4894C15.76 27.7678 15.7616 26.5996 16.4824 25.8804L16.7456 25.6171C17.4671 24.8971 18.6354 24.8987 19.3546 25.6195L32.6506 38.941Z" fill="#7041C2"/>
<path d="M59.7803 32.3797L63.6497 33.6184L69.3888 15.6919C69.6992 14.7226 69.165 13.6852 68.1958 13.3748L67.8365 13.2602C66.8672 12.9497 65.8298 13.4839 65.5194 14.4532L59.7803 32.3797Z" fill="#7041C2"/>
<path d="M46.3346 82.4709L40.7852 89.3009C39.6146 90.7424 37.4832 89.825 37.7256 87.984L38.8714 79.2588L46.3346 82.4709Z" fill="#7041C2"/>
<path d="M67.501 77.3523L75.558 80.8919C77.2581 81.639 78.7345 79.8491 77.6777 78.3224L72.6718 71.0852L67.501 77.3523Z" fill="#7041C2"/>
<path opacity="0.2" d="M73.444 72.201C72.4011 73.4003 69.5405 76.6906 68.2925 77.697L70.0638 78.4782C71.7206 77.0552 73.2032 75.455 74.4884 73.7138L73.444 72.201Z" fill="black"/>
<path opacity="0.2" d="M38.4565 82.4285C40.3959 83.3901 42.446 84.1364 44.5696 84.6443L45.7913 83.1408C44.2196 82.8156 40.1706 81.196 38.695 80.6061L38.4565 82.4285Z" fill="black"/>
<path d="M44.8895 30.1763C30.3215 33.6997 21.3679 48.3652 24.8913 62.934C28.4146 77.5028 43.0809 86.4555 57.6489 82.9322C72.2169 79.4088 81.1705 64.7425 77.6471 50.1745C74.1238 35.6065 59.4575 26.6529 44.8895 30.1763ZM70.033 66.8359C67.2389 71.9317 62.3917 75.8777 56.298 77.351C44.812 80.1288 33.2495 73.0697 30.4717 61.5838C29.8275 58.9198 29.7129 56.2511 30.059 53.6893C31.2071 45.2065 37.4169 37.8904 46.2389 35.7567C57.7248 32.9789 69.2874 40.038 72.0652 51.5239C73.3697 56.9169 72.5057 62.3262 70.033 66.8359Z" fill="#824BE0"/>
<path d="M45.3221 23.6649L41.5278 24.5823C40.8891 24.7371 40.4966 25.3797 40.6507 26.0184C40.8055 26.6571 41.4481 27.0496 42.0868 26.8956L45.8811 25.9781C46.5198 25.8233 46.9123 25.1807 46.7583 24.542C46.6042 23.9025 45.9608 23.51 45.3221 23.6649Z" fill="#FFAA00"/>
<path d="M41.0967 26.2452C40.9775 25.7528 41.3158 25.2465 41.85 25.1172L45.9664 24.1216C46.0322 24.1053 46.098 24.096 46.163 24.0929C45.9501 23.9296 45.6675 23.8599 45.3873 23.9272L41.5929 24.8447C41.1006 24.9639 40.7963 25.4617 40.9155 25.9541C40.9542 26.1128 41.0324 26.2522 41.1369 26.3636C41.1207 26.3265 41.1067 26.287 41.0967 26.2452Z" fill="#FFBC38"/>
<path d="M46.1688 23.7753C46.24 23.8852 46.295 24.0091 46.3275 24.1438C46.4824 24.7825 46.0891 25.4259 45.4504 25.5799L41.656 26.4973C41.358 26.5693 41.0591 26.5221 40.8091 26.3866C41.0762 26.7977 41.5825 27.0168 42.0865 26.8945L45.8808 25.9771C46.5195 25.8222 46.912 25.1797 46.758 24.5409C46.6759 24.2003 46.4545 23.9301 46.1688 23.7753Z" fill="#FF9500"/>
<path d="M18.0691 27.2047C12.2038 33.0584 12.1946 42.5593 18.0482 48.4246L39.289 27.2256C33.4346 21.3603 23.9344 21.351 18.0691 27.2047Z" fill="#FFAA00"/>
<path d="M20.1391 44.2426C15.8013 39.3064 15.2896 32.3231 18.367 26.9154C18.2664 27.0106 18.1673 27.1066 18.0682 27.205C12.2029 33.0586 12.1936 42.5595 18.0473 48.4248L37.6932 28.8184L20.1391 44.2426Z" fill="#FF9500"/>
<path d="M67.9656 13.4713C67.6389 13.3668 67.2905 13.3537 66.9584 13.4342C66.8074 13.4706 66.6642 13.5255 66.5303 13.5944C66.8523 13.5224 67.1883 13.5371 67.5042 13.6386C68.4209 13.932 68.955 14.8703 68.7654 15.7931L69.1316 15.9565L69.1749 15.821C69.49 14.8393 68.9473 13.7857 67.9656 13.4713Z" fill="#9455FF"/>
<path d="M17.6292 25.3644C17.2971 25.445 16.9936 25.6153 16.7505 25.8576C16.0212 26.5853 16.0196 27.7714 16.7482 28.5007L16.8387 28.5921L17.0911 28.2785C16.5105 27.5453 16.5593 26.4731 17.2367 25.7964C17.472 25.5619 17.7639 25.3954 18.0829 25.3118C17.9327 25.311 17.7809 25.3281 17.6292 25.3644Z" fill="#9455FF"/>
<path d="M67.3882 15.2767C75.2803 17.8029 79.6305 26.2493 77.1036 34.1415L48.5234 24.9928C51.0496 17.1007 59.4953 12.7505 67.3882 15.2767Z" fill="#FFAA00"/>
<path opacity="0.2" d="M73.8095 41.4285C75.0978 43.6442 76.0911 46.0821 76.7243 48.7005C80.2477 63.2685 71.2942 77.9348 56.7262 81.4581C45.3711 84.2042 33.9571 79.3701 27.8062 70.206C33.6838 80.3178 45.6993 85.8223 57.6482 82.9322C72.2162 79.4089 81.1698 64.7425 77.6464 50.1745C76.8699 46.9616 75.5507 44.022 73.8095 41.4285Z" fill="black"/>
<path d="M27.0736 46.9112C32.7337 33.3915 48.2819 27.0191 61.8024 32.6792C67.8287 35.2016 72.4344 39.6888 75.1882 45.0857C72.4839 39.3752 67.7428 34.6039 61.4548 31.9716C47.9342 26.3115 32.3861 32.6839 26.7268 46.2044C23.5897 53.6986 24.1495 61.816 27.5737 68.5267C24.4623 61.9569 24.0457 54.1438 27.0736 46.9112Z" fill="#9D61FF"/>
<path d="M46.2388 35.7577C37.4176 37.8906 31.2071 45.2067 30.0597 53.6903C29.7129 56.2522 29.8274 58.92 30.4723 61.5848C33.2501 73.07 44.8127 80.1291 56.2987 77.3513C62.3923 75.8772 67.2396 71.9311 70.0336 66.8362C72.5064 62.3265 73.3704 56.9172 72.0659 51.5249C69.2881 40.039 57.7247 32.9799 46.2388 35.7577Z" fill="white"/>
<path d="M46.0639 35.0342C36.9354 37.2422 30.5096 44.8122 29.322 53.59C28.9635 56.2409 29.082 59.0016 29.7486 61.7586C32.6231 73.644 44.5883 80.9485 56.4729 78.0739C62.778 76.5487 67.794 72.4656 70.6848 67.1926C73.2435 62.5266 74.1377 56.9291 72.7883 51.3487C69.9145 39.4641 57.9493 32.1596 46.0639 35.0342ZM70.0329 66.8357C67.2389 71.9315 62.3917 75.8775 56.298 77.3508C44.812 80.1286 33.2495 73.0695 30.4716 61.5836C29.8275 58.9196 29.7129 56.2509 30.059 53.6891C31.2071 45.2063 37.4169 37.8902 46.2389 35.7565C57.7248 32.9787 69.2874 40.0378 72.0652 51.5237C73.3697 56.9167 72.5057 62.326 70.0329 66.8357Z" fill="url(#paint0_linear_2849_78829)"/>
<path d="M47.0643 39.1686C46.7879 39.2351 46.5092 39.0656 46.4426 38.7892L46.0369 37.1131C45.9703 36.8367 46.1399 36.558 46.4163 36.4914C46.6927 36.4248 46.9714 36.5944 47.038 36.8707L47.4436 38.5469C47.511 38.8233 47.3407 39.102 47.0643 39.1686Z" fill="#242424"/>
<path d="M56.1214 76.617C55.845 76.6836 55.5663 76.5141 55.4997 76.2377L55.0941 74.5616C55.0275 74.2852 55.197 74.0065 55.4734 73.9399C55.7498 73.8733 56.0285 74.0429 56.0951 74.3192L56.5008 75.9954C56.5673 76.2718 56.3978 76.5497 56.1214 76.617Z" fill="#242424"/>
<path d="M38.7013 43.7277C38.5279 43.7695 38.3382 43.7208 38.2066 43.5822L37.0174 42.3334C36.8215 42.1275 36.8293 41.8015 37.0352 41.6057C37.2412 41.4098 37.5671 41.4175 37.763 41.6235L38.9521 42.8723C39.148 43.0782 39.1403 43.4041 38.9343 43.6C38.867 43.665 38.7864 43.7068 38.7013 43.7277Z" fill="#242424"/>
<path d="M65.2687 71.6304C65.0953 71.6723 64.9056 71.6235 64.774 71.4849L63.5848 70.2361C63.3889 70.0302 63.3967 69.7043 63.6026 69.5084C63.8085 69.3125 64.1345 69.3203 64.3303 69.5262L65.5195 70.775C65.7154 70.9809 65.7076 71.3068 65.5017 71.5027C65.4351 71.567 65.3538 71.6095 65.2687 71.6304Z" fill="#242424"/>
<path d="M33.7371 51.8587C33.6519 51.8796 33.5606 51.878 33.4708 51.8517L31.8163 51.3647C31.5438 51.2842 31.3874 50.9978 31.4679 50.7253C31.5485 50.4527 31.8349 50.2964 32.1074 50.3769L33.7619 50.8638C34.0344 50.9444 34.1908 51.23 34.1103 51.5033C34.0561 51.686 33.9097 51.8169 33.7371 51.8587Z" fill="#242424"/>
<path d="M70.6963 62.7389C70.6111 62.7598 70.5198 62.7583 70.43 62.732L68.7763 62.245C68.5038 62.1645 68.3474 61.8788 68.4279 61.6055C68.5084 61.333 68.7941 61.1766 69.0674 61.2571L70.7218 61.7441C70.9943 61.8246 71.1507 62.1103 71.0702 62.3836C71.016 62.5663 70.8689 62.6971 70.6963 62.7389Z" fill="#242424"/>
<path d="M33.5042 61.3804L31.828 61.786C31.5517 61.8526 31.2729 61.6831 31.2064 61.4067C31.1398 61.1303 31.3093 60.8516 31.5857 60.785L33.2618 60.3793C33.5382 60.3128 33.8169 60.4823 33.8835 60.7587C33.9501 61.0351 33.7806 61.3138 33.5042 61.3804Z" fill="#242424"/>
<path d="M70.9519 52.3236L69.2758 52.7293C68.9994 52.7959 68.7207 52.6263 68.6541 52.3499C68.5875 52.0735 68.7571 51.7948 69.0335 51.7282L70.7096 51.3226C70.986 51.256 71.2647 51.4255 71.3313 51.7019C71.3986 51.9783 71.2283 52.2562 70.9519 52.3236Z" fill="#242424"/>
<path d="M36.8149 70.9335C36.6422 70.9753 36.4518 70.9265 36.3201 70.788C36.1243 70.582 36.132 70.2561 36.338 70.0602L37.5867 68.8711C37.7927 68.6752 38.1186 68.6829 38.3145 68.8889C38.5103 69.0948 38.5026 69.4207 38.2967 69.6166L37.0479 70.8058C36.9805 70.8708 36.9 70.9134 36.8149 70.9335Z" fill="#242424"/>
<path d="M64.7177 44.366C64.5443 44.4078 64.3546 44.359 64.223 44.2205C64.0271 44.0145 64.0349 43.6886 64.2408 43.4927L65.4896 42.3035C65.6955 42.1077 66.0214 42.1154 66.2173 42.3214C66.4132 42.5273 66.4054 42.8532 66.1995 43.0491L64.9507 44.2383C64.8834 44.3025 64.8029 44.3451 64.7177 44.366Z" fill="#242424"/>
<path d="M45.7057 76.3616C45.6205 76.3825 45.5292 76.381 45.4394 76.3546C45.1669 76.2741 45.0105 75.9877 45.091 75.7152L45.5779 74.0607C45.6585 73.7882 45.9441 73.6318 46.2174 73.7123C46.4899 73.7928 46.6463 74.0793 46.5658 74.3518L46.0789 76.0063C46.0254 76.1897 45.8791 76.3198 45.7057 76.3616Z" fill="#242424"/>
<path d="M56.5861 39.4021C56.5009 39.423 56.4096 39.4215 56.3197 39.3952C56.0472 39.3147 55.8908 39.029 55.9714 38.7557L56.4583 37.1012C56.5388 36.8287 56.8245 36.6723 57.0978 36.7528C57.3703 36.8334 57.5267 37.119 57.4462 37.3923L56.9592 39.0468C56.9058 39.2295 56.7595 39.3603 56.5861 39.4021Z" fill="#242424"/>
<path d="M47.3506 40.3533C47.6077 40.7504 47.8415 41.1522 48.0668 41.5571C48.1821 41.7584 48.2882 41.9628 48.3989 42.1657C48.505 42.3693 48.6126 42.5729 48.7163 42.7773C48.7395 42.8291 48.7566 42.8826 48.7674 42.9368C48.7783 42.9917 48.7837 43.0475 48.793 43.1024C48.8007 43.1582 48.8131 43.2124 48.827 43.2666L48.8665 43.4291L49.0237 44.0795L49.338 45.3801L50.5968 50.5842L51.8557 55.7884L52.4851 58.3904L52.4797 59.0802C52.4743 59.3109 52.4727 59.5409 52.4634 59.7731C52.4487 60.2353 52.427 60.6999 52.386 61.169C52.1352 60.7711 51.9037 60.3677 51.6792 59.9628C51.5654 59.7608 51.4585 59.5571 51.3478 59.3543L51.0281 58.7435L50.3986 56.1414L49.1398 50.9373L47.881 45.7331L47.5666 44.4325L47.4095 43.7822L47.37 43.6196C47.3576 43.5654 47.3437 43.5112 47.3251 43.4586C47.3081 43.4051 47.2872 43.3533 47.2717 43.2991C47.2562 43.2457 47.2469 43.1907 47.2438 43.1334C47.243 42.9042 47.2454 42.6743 47.2469 42.4444C47.2531 42.2137 47.2539 41.9837 47.2647 41.7515C47.2794 41.2885 47.3034 40.824 47.3506 40.3533Z" fill="#262626"/>
<path d="M48.7171 42.7773C48.6134 42.5729 48.5058 42.3693 48.3997 42.1657C48.289 41.9628 48.1829 41.7592 48.0676 41.5571C47.8423 41.153 47.6085 40.7504 47.3514 40.3533C47.3274 40.5956 47.3089 40.8364 47.2949 41.0764C47.4095 41.2707 47.521 41.4666 47.6301 41.6624C47.7455 41.8645 47.8516 42.0681 47.9623 42.2709C48.0683 42.4746 48.176 42.6782 48.2797 42.8826C48.3029 42.9344 48.32 42.9879 48.3308 43.042C48.3416 43.097 48.347 43.1528 48.3563 43.2077C48.3641 43.2635 48.3765 43.3177 48.3904 43.3719L48.4299 43.5344L48.587 44.1848L48.9014 45.4854L50.1602 50.6895L51.4191 55.8937L52.0485 58.4957L52.0431 59.1855C52.0376 59.4162 52.0361 59.6462 52.0268 59.8784C52.0198 60.0944 52.0113 60.3112 52.0005 60.528C52.1251 60.7424 52.2529 60.9561 52.3868 61.1682C52.4278 60.6991 52.4495 60.2353 52.4642 59.7724C52.4735 59.5409 52.4751 59.3109 52.4805 59.0795L52.4859 58.3897L51.8565 55.7876L50.5976 50.5835L49.3388 45.3793L49.0245 44.0787L48.8673 43.4284L48.8278 43.2658C48.8139 43.2116 48.8023 43.1574 48.7938 43.1017C48.7852 43.0467 48.7791 42.9902 48.7682 42.936C48.7574 42.8826 48.7403 42.8291 48.7171 42.7773Z" fill="#4D4D4D"/>
<path d="M47.6191 54.3257C48.0117 54.3822 48.3918 54.4588 48.7673 54.5425C48.9562 54.5827 49.1404 54.6299 49.3278 54.6741C49.512 54.7213 49.6971 54.7685 49.8806 54.8181C49.9247 54.8328 49.9657 54.8529 50.0037 54.8792C50.0416 54.9048 50.0764 54.935 50.1128 54.9628C50.1492 54.9915 50.1871 55.0155 50.2266 55.0387L50.3435 55.1099L50.8104 55.3948L51.7433 55.9647L55.4757 58.2431L59.208 60.5216L61.0746 61.6612L61.454 62.0885C61.5786 62.2341 61.7048 62.3773 61.8271 62.5259C62.0741 62.8209 62.3172 63.1221 62.5502 63.4403C62.1608 63.3791 61.7822 63.3001 61.4068 63.215C61.2179 63.1739 61.0336 63.1267 60.847 63.0826L60.2927 62.9417L58.4261 61.8021L54.6937 59.5236L50.9613 57.2452L50.0284 56.6754L49.5616 56.3905L49.4447 56.3192C49.406 56.2952 49.3665 56.272 49.3255 56.2527C49.2844 56.2325 49.2411 56.2155 49.2016 56.1938C49.1613 56.1721 49.1249 56.145 49.0909 56.1125C48.9631 55.9724 48.8369 55.8292 48.71 55.6867C48.5861 55.5404 48.4591 55.3987 48.3368 55.2485C48.0906 54.9528 47.8483 54.6493 47.6191 54.3257Z" fill="#262626"/>
<path d="M48.4979 54.9164C48.6868 54.9567 48.871 55.0039 49.0584 55.048C49.2426 55.0952 49.4277 55.1425 49.6111 55.192C49.6553 55.2067 49.6963 55.2268 49.7342 55.2532C49.7722 55.2787 49.807 55.3089 49.8434 55.3368C49.8798 55.3654 49.9177 55.3894 49.9572 55.4127L50.0741 55.4839L50.5409 55.7688L51.4739 56.3386L55.2062 58.617L58.9386 60.8955L60.8052 62.0351L61.1846 62.4625C61.3092 62.608 61.4354 62.7512 61.5577 62.8999C61.6739 63.0385 61.7892 63.1794 61.903 63.3218C62.1159 63.3652 62.3311 63.4054 62.5502 63.4403C62.3172 63.1221 62.0741 62.8209 61.8271 62.5259C61.7048 62.3765 61.5786 62.2341 61.454 62.0885L61.0746 61.6612L59.208 60.5216L55.4757 58.2431L51.7433 55.9647L50.8104 55.3948L50.3435 55.1099L50.2266 55.0387C50.1871 55.0155 50.1492 54.9907 50.1128 54.9628C50.0764 54.935 50.0416 54.9048 50.0037 54.8792C49.9665 54.8529 49.9255 54.8328 49.8806 54.8181C49.6979 54.7685 49.5128 54.7213 49.3278 54.6741C49.1412 54.6307 48.9569 54.5827 48.7673 54.5425C48.3918 54.4581 48.0117 54.3814 47.6191 54.3257C47.7368 54.4914 47.8568 54.6508 47.9799 54.8072C48.1541 54.8421 48.3268 54.8785 48.4979 54.9164Z" fill="#4D4D4D"/>
<path d="M51.5978 57.9144C50.8476 58.0955 50.0904 57.6333 49.9085 56.8831C49.7273 56.133 50.1895 55.3758 50.9397 55.1939C51.6899 55.0127 52.4478 55.4749 52.629 56.2251C52.8101 56.9753 52.3479 57.7332 51.5978 57.9144Z" fill="#262626"/>
<path d="M51.4622 57.3557C51.0201 57.4625 50.5734 57.19 50.4665 56.7479C50.3597 56.3059 50.6322 55.8592 51.0743 55.7523C51.5164 55.6455 51.9631 55.918 52.0699 56.3601C52.1775 56.8021 51.9042 57.2488 51.4622 57.3557ZM51.1339 55.9954C50.8258 56.0697 50.6361 56.381 50.7104 56.6891C50.7847 56.9972 51.096 57.1869 51.4041 57.1126C51.7122 57.0383 51.9019 56.727 51.8276 56.4189C51.7533 56.1108 51.442 55.9203 51.1339 55.9954Z" fill="white"/>
<path d="M42.8716 70.3087C43.2192 69.5391 43.5931 68.7858 43.9655 68.0318C44.406 67.3195 44.8396 66.6026 45.2778 65.888L47.8969 61.5975L50.516 57.3069L51.8259 55.1616C52.3276 54.4857 52.8269 53.8091 53.3487 53.1464C52.998 53.9136 52.6241 54.6669 52.2525 55.4217L50.9426 57.567L48.3227 61.8576L45.7036 66.1482C45.2677 66.8635 44.828 67.5773 44.396 68.295C43.8966 68.9709 43.3973 69.6475 42.8716 70.3087Z" fill="#F8203D"/>
<path d="M51.1339 55.9956C50.8258 56.0699 50.6361 56.3812 50.7105 56.6893C50.7848 56.9974 51.096 57.1871 51.4041 57.1128C51.7123 57.0385 51.9019 56.7272 51.8276 56.4191C51.7533 56.111 51.4421 55.9205 51.1339 55.9956Z" fill="#F8203D"/>
<path d="M73.3316 31.3782C74.9342 25.005 72.1982 18.5598 66.9902 15.1565C67.1226 15.1952 67.2558 15.2355 67.3881 15.2773C75.2803 17.8035 79.6305 26.2499 77.1035 34.142L50.6694 25.6801L73.3316 31.3782Z" fill="#FF9500"/>
<path d="M22.5366 26.0428C24.9064 25.4699 27.4024 25.504 29.7544 26.1427C31.8014 26.6986 33.7408 27.7267 35.3619 29.1172L35.5307 29.2619L37.4824 27.3141C35.917 25.9724 34.0706 24.9907 32.0855 24.4511C29.821 23.8364 27.4187 23.8031 25.1371 24.3551C23.1235 24.8421 21.2499 25.7765 19.645 27.0826C20.571 26.6335 21.5418 26.2828 22.5366 26.0428Z" fill="#FFBC38"/>
<path d="M62.8825 16.285C60.5127 16.8579 58.3086 18.0293 56.5078 19.6721C54.9409 21.102 53.6859 22.9028 52.8792 24.8801L52.7948 25.086L50.168 24.2453C50.9468 22.3369 52.1406 20.6197 53.6604 19.2331C55.3938 17.6515 57.5158 16.5242 59.7966 15.9722C61.8103 15.4853 63.9037 15.4605 65.9282 15.8886C64.9016 15.9118 63.8774 16.0442 62.8825 16.285Z" fill="#FFBC38"/>
<path opacity="0.2" d="M30.384 36.6695L28.1095 40.1417L27.23 39.2607L30.1061 36.3907L30.384 36.6695Z" fill="black"/>
<path opacity="0.2" d="M60.8789 28.9485L60.748 29.3565L64.3589 31.4019L64.7483 30.1872L60.8789 28.9485Z" fill="black"/>
<path opacity="0.1" d="M33.7248 63.6005C33.0791 60.9319 32.9645 58.2586 33.3114 55.6921C34.461 47.1946 40.6825 39.8653 49.5191 37.7277C54.5777 36.5045 59.651 37.1858 63.9849 39.311C59.051 35.6351 52.5795 34.0999 46.132 35.6599C37.2946 37.7974 31.0739 45.1259 29.9243 53.6243C29.5766 56.1907 29.692 58.8632 30.3377 61.5327C31.8969 67.9801 36.22 73.0348 41.7439 75.7438C37.8721 72.8599 34.948 68.6591 33.7248 63.6005Z" fill="black"/>
<path d="M73.6205 7.66248L72.1016 14.1254L75.8223 8.62712L73.6205 7.66248Z" fill="#FFAA00"/>
<path d="M62.6631 4.69856L64.0094 11.1995L65.0662 4.64514L62.6631 4.69856Z" fill="#FFAA00"/>
<path d="M52.8696 9.10215L56.3907 12.3932L54.3259 8.03918L52.8696 9.10215Z" fill="#FFAA00"/>
<path d="M81.0304 14.2152L77.4629 17.4544L81.971 15.7528L81.0304 14.2152Z" fill="#FFAA00"/>
<path d="M8.92086 23.2847L13.309 28.4369L7.37402 25.1853L8.92086 23.2847Z" fill="#FFAA00"/>
<path d="M17.4756 15.4935L19.2826 22.0153L15.2715 16.5642L17.4756 15.4935Z" fill="#FFAA00"/>
<path d="M28.4073 14.9241L26.7482 19.5476L26.5918 14.6377L28.4073 14.9241Z" fill="#FFAA00"/>
<path d="M5.25442 32.678L9.99868 33.9531L5.11816 34.5105L5.25442 32.678Z" fill="#FFAA00"/>
<defs>
<linearGradient id="paint0_linear_2849_78829" x1="32.3717" y1="45.0176" x2="70.1663" y2="68.0901" gradientUnits="userSpaceOnUse">
<stop stop-color="#5E2CB3"/>
<stop offset="0.1909" stop-color="#6533BA"/>
<stop offset="0.4678" stop-color="#7846CC"/>
<stop offset="0.7955" stop-color="#9766E9"/>
<stop offset="1" stop-color="#AE7DFF"/>
</linearGradient>
</defs>
</svg>
