<svg width="96" height="96" viewBox="0 0 96 96" fill="none" xmlns="http://www.w3.org/2000/svg">
<g clip-path="url(#clip0_2566_21481)">
<path d="M30.5088 41.472H26.2368V69.8688H30.5088V41.472Z" fill="#E6E9EE"/>
<path d="M22.2817 38.6112H9.30253C7.12344 38.6112 5.35693 40.3777 5.35693 42.5568V68.7936C5.35693 70.9727 7.12344 72.7392 9.30253 72.7392H22.2817C24.4608 72.7392 26.2273 70.9727 26.2273 68.7936V42.5568C26.2273 40.3777 24.4608 38.6112 22.2817 38.6112Z" fill="#8E3AEE"/>
<path d="M69.0432 51.1296C68.9184 49.2288 67.2576 47.7888 65.3472 47.7888H63.7824C65.76 47.7888 67.3632 46.1856 67.3632 44.208C67.3632 42.2304 65.76 40.6272 63.7824 40.6272H46.4064C45.936 39.2448 46.7904 37.5648 47.0496 37.104C47.0784 37.0656 47.0976 37.0176 47.1264 36.9792C49.0656 33.6768 49.8048 30.1248 49.8048 30.1248C52.176 19.8432 44.9184 19.824 44.9184 19.824L44.7072 23.328C44.5632 25.7088 43.68 27.984 42.144 29.808C40.7904 31.4208 38.9568 33.36 36.9888 34.7808C35.1552 36.1056 33.744 37.9296 32.9376 40.032C32.4 41.424 31.632 42.5472 30.5088 43.44V68.4576L30.8928 68.544C32.9856 69.0144 35.1264 69.2448 37.2768 69.2448H61.9776C63.8784 69.2448 65.5488 67.8048 65.6736 65.904C65.808 63.8208 64.1568 62.0928 62.1024 62.0928H63.6672C65.568 62.0928 67.2384 60.6528 67.3632 58.752C67.4976 56.6688 65.8464 54.9408 63.792 54.9408H65.4816C67.536 54.9408 69.1872 53.2128 69.0528 51.1296H69.0432Z" fill="#FFC639"/>
<path d="M23.3566 67.4592C23.3566 69.264 21.8974 70.7232 20.0926 70.7232C18.2878 70.7232 16.8286 69.264 16.8286 67.4592C16.8286 65.6544 18.2878 64.1952 20.0926 64.1952C21.8974 64.1952 23.3566 65.6544 23.3566 67.4592Z" fill="#54169B"/>
<path d="M49.7376 5.18396C49.0752 5.18396 48.5376 5.72156 48.5376 6.38396V12.1152C48.5376 12.7776 49.0752 13.3152 49.7376 13.3152C50.4 13.3152 50.9376 12.7776 50.9376 12.1152V6.38396C50.9376 5.72156 50.4 5.18396 49.7376 5.18396Z" fill="#1F9C42" fill-opacity="0.4"/>
<path d="M49.7376 82.6848C49.0752 82.6848 48.5376 83.2224 48.5376 83.8848V89.616C48.5376 90.2784 49.0752 90.816 49.7376 90.816C50.4 90.816 50.9376 90.2784 50.9376 89.616V83.8848C50.9376 83.2224 50.4 82.6848 49.7376 82.6848Z" fill="#1F9C42" fill-opacity="0.4"/>
<path d="M91.3633 46.8H85.6321C84.9697 46.8 84.4321 47.3376 84.4321 48C84.4321 48.6624 84.9697 49.2 85.6321 49.2H91.3633C92.0257 49.2 92.5633 48.6624 92.5633 48C92.5633 47.3376 92.0257 46.8 91.3633 46.8Z" fill="#1F9C42" fill-opacity="0.4"/>
<path d="M75.9646 23.472L80.0158 19.4208C80.4862 18.9504 80.4862 18.192 80.0158 17.7216C79.5454 17.2512 78.787 17.2512 78.3166 17.7216L74.2654 21.7728C73.795 22.2432 73.795 23.0016 74.2654 23.472C74.7358 23.9424 75.4942 23.9424 75.9646 23.472Z" fill="#1F9C42" fill-opacity="0.4"/>
<path d="M75.9646 72.528C75.4942 72.0576 74.7358 72.0576 74.2654 72.528C73.795 72.9984 73.795 73.7568 74.2654 74.2272L78.3166 78.2784C78.787 78.7488 79.5454 78.7488 80.0158 78.2784C80.4862 77.808 80.4862 77.0496 80.0158 76.5792L75.9646 72.528Z" fill="#1F9C42" fill-opacity="0.4"/>
<path d="M21.1584 17.7216C20.688 17.2512 19.9296 17.2512 19.4592 17.7216C18.9888 18.192 18.9888 18.9504 19.4592 19.4208L23.5104 23.472C23.9808 23.9424 24.7392 23.9424 25.2096 23.472C25.68 23.0016 25.68 22.2432 25.2096 21.7728L21.1584 17.7216Z" fill="#1F9C42" fill-opacity="0.4"/>
<path d="M34.925 9.09119C34.6754 8.47679 33.965 8.18879 33.3602 8.43839C32.7458 8.68799 32.4578 9.39839 32.7074 10.0032L34.8962 15.3024C35.1458 15.9168 35.8562 16.2048 36.461 15.9552C37.0754 15.7056 37.3634 14.9952 37.1138 14.3904L34.925 9.09119Z" fill="#1F9C42" fill-opacity="0.4"/>
<path d="M64.5793 80.6976C64.3297 80.0832 63.6193 79.7952 63.0145 80.0448C62.4001 80.2944 62.1121 81.0048 62.3617 81.6096L64.5505 86.9088C64.8001 87.5232 65.5105 87.8112 66.1153 87.5616C66.7297 87.312 67.0177 86.6016 66.7681 85.9968L64.5793 80.6976Z" fill="#1F9C42" fill-opacity="0.4"/>
<path d="M83.3567 35.376L88.6559 33.1776C89.2703 32.928 89.5583 32.2176 89.3087 31.6128C89.0591 30.9984 88.3487 30.7104 87.7439 30.96L82.4447 33.1488C81.8303 33.3984 81.5423 34.1088 81.7919 34.7136C82.0415 35.328 82.7519 35.616 83.3567 35.3664V35.376Z" fill="#1F9C42" fill-opacity="0.4"/>
<path d="M66.1246 8.43839C65.5102 8.18879 64.8094 8.47679 64.5598 9.09119L62.371 14.3904C62.1214 15.0048 62.4094 15.7056 63.0238 15.9552C63.6382 16.2048 64.339 15.9168 64.5886 15.3024L66.7774 10.0032C67.027 9.38879 66.739 8.68799 66.1246 8.43839Z" fill="#1F9C42" fill-opacity="0.4"/>
<path d="M36.4703 80.0448C35.8559 79.7952 35.1551 80.0832 34.9055 80.6976L32.7167 85.9968C32.4671 86.6112 32.7551 87.312 33.3695 87.5616C33.9839 87.8112 34.6847 87.5232 34.9343 86.9088L37.1231 81.6096C37.3727 80.9952 37.0847 80.2944 36.4703 80.0448Z" fill="#1F9C42" fill-opacity="0.4"/>
<path d="M88.6466 62.8224L83.3474 60.6336C82.733 60.384 82.0322 60.672 81.7826 61.2864C81.533 61.9008 81.821 62.6016 82.4354 62.8512L87.7346 65.04C88.349 65.2896 89.0498 65.0016 89.2994 64.3872C89.549 63.7728 89.261 63.072 88.6466 62.8224Z" fill="#1F9C42" fill-opacity="0.4"/>
</g>
<defs>
<clipPath id="clip0_2566_21481">
<rect width="96" height="96" fill="white"/>
</clipPath>
</defs>
</svg>
