<svg width="24" height="24" viewBox="0 0 24 24" fill="none" xmlns="http://www.w3.org/2000/svg">
<path d="M15.152 16.689C15.624 16.62 16.609 16.088 16.816 15.517C17.022 14.946 17.022 14.454 16.965 14.345C16.9021 14.2547 16.7652 14.1894 16.5551 14.0891C16.5347 14.0794 16.5137 14.0694 16.492 14.059C16.246 13.931 15.034 13.34 14.808 13.261C14.582 13.172 14.415 13.133 14.257 13.379C14.1221 13.5777 13.7877 13.9759 13.5913 14.2098C13.5445 14.2655 13.5056 14.3119 13.479 14.344C13.331 14.511 13.193 14.531 12.947 14.403C12.91 14.3852 12.8604 14.3643 12.7997 14.3387C12.4577 14.1944 11.763 13.9014 10.968 13.182C10.229 12.532 9.73702 11.724 9.59902 11.478C9.46378 11.2532 9.56736 11.1353 9.67627 11.0113C9.68654 10.9996 9.69686 10.9879 9.70702 10.976C9.97302 10.651 10.239 10.306 10.318 10.139C10.397 9.97199 10.357 9.83399 10.298 9.70599C10.2624 9.63476 10.069 9.16486 9.87575 8.69534C9.74888 8.38708 9.62207 8.07899 9.54002 7.88399C9.36267 7.44785 9.17631 7.45466 9.03281 7.4599C9.01772 7.46045 9.00311 7.46099 8.98902 7.46099C8.84103 7.45099 8.67404 7.45099 8.51605 7.45099C8.34805 7.45099 8.08202 7.50999 7.85602 7.75599C7.84347 7.76959 7.82968 7.78428 7.81484 7.8001C7.56127 8.0703 6.99902 8.66941 6.99902 9.80399C6.99902 11.016 7.87502 12.188 8.00302 12.355C8.00802 12.3621 8.0157 12.3734 8.02601 12.3885C8.25931 12.7305 9.84068 15.049 12.208 16.068C12.7463 16.3052 13.1824 16.4496 13.5259 16.5634C13.5532 16.5725 13.5799 16.5813 13.606 16.59C14.197 16.778 14.729 16.748 15.152 16.689Z" fill="white"/>
<path fill-rule="evenodd" clip-rule="evenodd" d="M2 12C2 6.48 6.49 2 12 2C14.67 2 17.18 3.039 19.07 4.929C20.96 6.819 22 9.329 22 11.999C22 17.519 17.51 21.999 12 21.999H11.989C10.319 21.999 8.679 21.579 7.219 20.789L3.619 21.624C2.885 21.794 2.233 21.122 2.427 20.393L3.33 17C2.46 15.48 2 13.76 2 12ZM17.656 6.344C16.144 4.833 14.136 4 12 4C7.589 4 4 7.589 4 12C4 13.403 4.369 14.788 5.065 16.007L5.473 16.72L4.787 19.301L7.506 18.671L8.172 19.031C9.343 19.665 10.664 20 11.99 20C16.411 20 20 16.411 20 12C20 9.865 19.167 7.856 17.656 6.344Z" fill="white"/>
</svg>
